<svg version="1.2" xmlns="http://www.w3.org/2000/svg" viewBox="0 0 1456 2935" width="1456" height="2935">
	<title>flat-iphone-12-mockup-zeplin-sketch</title>
	<defs>
		<clipPath clipPathUnits="userSpaceOnUse" id="cp1">
			<path d="m0 0h1456v2935h-1456z"/>
		</clipPath>
		<clipPath clipPathUnits="userSpaceOnUse" id="cp2">
			<path d="m10 230c0-127.03 102.97-230 230-230h972c127.03 0 230 102.97 230 230v2482c0 127.03-102.97 230-230 230h-972c-127.03 0-230-102.97-230-230zm-10 244c0-2.76 2.24-5 5-5h5c2.76 0 5 2.24 5 5v101c0 2.76-2.24 5-5 5h-5c-2.76 0-5-2.24-5-5zm2 212c0-2.76 2.24-5 5-5h5c2.76 0 5 2.24 5 5v209c0 2.76-2.24 5-5 5h-5c-2.76 0-5-2.24-5-5zm0 280c0-2.76 2.24-5 5-5h5c2.76 0 5 2.24 5 5v209c0 2.76-2.24 5-5 5h-5c-2.76 0-5-2.24-5-5zm1435-205c0-2.76 2.24-5 5-5h5c2.76 0 5 2.24 5 5v340c0 2.76-2.24 5-5 5h-5c-2.76 0-5-2.24-5-5z"/>
		</clipPath>
	</defs>
	<style>
		tspan { white-space:pre } 
		.s0 { fill: #363941 } 
		.s1 { fill: #4e505e } 
		.s2 { fill: #212227 } 
		.s3 { opacity: .4;fill: #383c47 } 
		.s4 { fill: #2d2e35 } 
		.s5 { fill-opacity: .2;fill: #212227 } 
	</style>
	<g id="Scene Large" clip-path="url(#cp1)">
		<g id="iPhone 12 Pro copy">
			<g id="Device">
				<g id="Shape Enhancement">
					<path id="Mask" class="s0" d="m10 230c0-127 103-230 230-230h972c127 0 230 103 230 230v2482c0 127-103 230-230 230h-972c-127 0-230-103-230-230zm-10 244c0-2.8 2.2-5 5-5h5c2.8 0 5 2.2 5 5v101c0 2.8-2.2 5-5 5h-5c-2.8 0-5-2.2-5-5zm2 212c0-2.8 2.2-5 5-5h5c2.8 0 5 2.2 5 5v209c0 2.8-2.2 5-5 5h-5c-2.8 0-5-2.2-5-5zm0 280c0-2.8 2.2-5 5-5h5c2.8 0 5 2.2 5 5v209c0 2.8-2.2 5-5 5h-5c-2.8 0-5-2.2-5-5zm1435-205c0-2.8 2.2-5 5-5h5c2.8 0 5 2.2 5 5v340c0 2.8-2.2 5-5 5h-5c-2.8 0-5-2.2-5-5z"/>
					<g id="Mask by Mask" clip-path="url(#cp2)">
						<path id="Details" class="s1" d="m1133 1h22v22h-22zm287 295h22v20h-22zm0 2325h22v20h-22zm-1124 299h21v22h-21zm-286-300h22v21h-22zm0-2324h23v21h-23z"/>
					</g>
				</g>
				<g id="Combined Shape">
					<path id="Combined Shape" class="s2" d="m32 228c0-113.8 92.2-206 206-206h976c113.8 0 206 92.2 206 206v2486c0 113.8-92.2 206-206 206h-976c-113.8 0-206-92.2-206-206z"/>
				</g>
			</g>
			<g id="Screen">
				<path id="Mask" class="s3" d="m78 1470q0-585.1 0-1170.3c0-29.3-0.3-58.6 3.3-87.7 4.6-36.6 17-69.6 44-96 23.2-22.7 51.6-34.7 83.1-40 16.1-2.8 32.3-4.1 48.7-4.3 32.6-0.6 65.2-0.7 97.8-0.2 12.8 0.2 20.7 9 21.2 20.2 0.5 9.2 0.7 18.5 2.7 27.7 6.3 29.8 31.7 53.5 63.1 56.6 9.3 1 18.6 1.4 27.9 1.4q256.1 0 512.2-0.1c13 0 26-0.1 38.6-3.5 31.2-8.4 51.8-36 53.3-68.3 0.3-5.9 0.6-11.9 1.4-17.9 1.4-8.9 7.7-14.7 16.7-15.7 3.6-0.5 7.3-0.7 10.9-0.7 35.3-0.1 70.6-0.7 105.9 1 28 1.4 55.6 5.8 81 18.6 41.4 20.9 65.7 54.9 75.9 99.6 5.2 22.6 6.2 45.5 6.7 68.4 0.4 14.3 0.4 28.7 0.4 43q0 1172.8 0 2345.6c0 27.3 0.1 54.6-3.3 81.8-4.6 36.5-17 69.6-44 95.9-21.6 21.1-47.9 33.1-77.3 38.9-25.2 5-50.8 6-76.5 6-78.8 0.1-157.7 0.1-236.6 0.1q-321 0-642.1 0c-26.3 0-52.6-0.3-78.7-4-40.6-5.9-75.8-22-101.6-55.2-15.8-20.4-24.8-43.8-29.4-69-5.2-29-5.2-58.3-5.2-87.6-0.1-160.1-0.1-320.2-0.1-480.3q0-352 0-704z"/>
			</g>
			<g id="Speaker + Camera">
				<path id="Oval" class="s4" d="m873 127c14.9 0 27-12.1 27-27 0-14.9-12.1-27-27-27-14.9 0-27 12.1-27 27 0 14.9 12.1 27 27 27z"/>
				<path id="Oval" class="s5" d="m873 114c7.7 0 14-6.3 14-14 0-7.7-6.3-14-14-14-7.7 0-14 6.3-14 14 0 7.7 6.3 14 14 14z"/>
				<path id="Rectangle" class="s4" d="m653 101c0-6.6 5.4-12 12-12h127c6.6 0 12 5.4 12 12 0 6.6-5.4 12-12 12h-127c-6.6 0-12-5.4-12-12z"/>
			</g>
		</g>
	</g>
</svg>